<?xml version="1.0" encoding="UTF-8"?>
<svg id="Calque_1" data-name="Calque 1" xmlns="http://www.w3.org/2000/svg" viewBox="0 0 1080 1080">
  <g>
    <path d="m540.11,680.51c-.17-.6-.34-1.19-.51-1.77-.23-.82-.47-1.61-.71-2.4h0c-1.57-5.19-3.22-9.89-4.95-14.11-8.34-20.42-18.42-29.94-29.16-30.95h-.01c-6.25-.6-12.71,1.69-19.18,6.39-20.49,14.9-54.94,62.4-52.15,28.87,2.24-26.96,71.41-88.85,97.17-147.9,3.71-8.5,6.51-16.94,8.09-25.21,1.1-5.72,1.6-11.35,1.41-16.86v-.11c-.65-18.61-2-39.22-4.83-59.69-.78-5.64-1.67-11.28-2.69-16.86-1.79-9.77-3.96-19.38-6.62-28.58-7.85-27.16-19.86-50.76-38.26-64.63-6.66-5.03-14.17-8.79-22.61-10.97-52.85-13.66-96.46,22.23-142.01,30.93h-.01c-6.62,1.28-13.28,1.97-20.01,1.85-3.51-.06-7.1-.3-10.76-.69-51.78-5.51-117.78-40.92-157.79-23.52-42.84,18.62-90.7,85.67-86.79,168.55.49,10.4,2.36,18,5.02,24.31,5.34,12.67,13.86,20.1,20.76,34.4,1.49,3.09,2.91,6.5,4.2,10.36,8.16,24.32-29.79,74.09-26.83,125.79.75,13.27,4.21,26.68,11.84,39.81,1.43,2.47,2.9,4.89,4.41,7.27,4.68,7.46,9.7,14.49,15.03,21.01,29.95,36.63,69.98,57.3,119.83,48.27.24-.04.48-.08.71-.13,12.09-2.25,24.75-6.24,37.98-12.17,10.73-4.81,20.81-9.18,30.25-13.1h.01c61.79-25.61,96.12-31.55,106.63-12.97,1.71,3.03,4.31,6.16,7.59,9.28,19.86,18.85,64.88,37.18,92.05,31.2,31.66-6.96,76.45-57.25,62.9-105.67Zm-173.54-121.39c-.19-.02-.37-.05-.55-.08-69.14,6.29-79.85,70.64-114.31,94.85-12.47,8.76-25.36,8.21-36.29,2.26-.54-.29-1.08-.6-1.61-.92-13.74-8.29-24.08-25.13-25.99-42.27-.65-5.78-.35-11.59,1.11-17.12,9.31-35.38,13.03-39.51,8.58-67.44-.17-1.06-.33-2.1-.48-3.13h0c-12.47-87.29,50.92-78.31,81.84-69.06,9.68,2.89,16.18,5.81,16.18,5.81,36.84,8.98,41.78-73.93,110.69-22.03,2.5,1.88,5.09,3.95,7.77,6.2,4.56,3.84,8.51,7.64,11.89,11.39,11.94,13.2,16.93,25.82,17.19,37.4.87,39.87-54.43,67.39-76.02,64.14Z" style="fill: #3417e1;"/>
    <path d="m1029.95,689.68c-3.26,15-9.44,30.88-17.21,42.53-15.54,23.3-76.25,53.66-151.79,55.07-4.51.08-8.8.07-12.87-.06-29.68-.86-47.85-6.98-58.46-16.68-12.3-11.21-14.47-27.22-12.69-45.38,1.62-16.56,6.37-36.25,9.65-56.82,2.65-16.63,4.34-33.82,2.65-50.39-.77-7.5-2.23-14.86-4.6-21.99-5.38-16.15-14.48-25.66-25.3-29.62-28.49-10.47-68.9,17.46-84.76,63.51-.89,2.58-1.6,5.91-2.18,9.84h0c-2.72,18.59-2.45,50.33-3.93,77.17-.07,1.06-.13,2.11-.19,3.16-.07,1.09-.14,2.18-.22,3.25-1.3,18.65-3.72,34-9.02,39.3-14.36,14.37-22.1,19.45-61.74,20.4-1.27.03-2.57.06-3.91.08-1.1.02-2.18-.03-3.22-.13-13.65-1.36-22.46-12.84-28.15-27.32-10.87-27.71-10.29-66.45-10.29-66.45,0,0-.28-8.62-.03-20.61.02-1,.05-2.02.07-3.06.16-5.9.45-12.44.96-19.09h0c.74-9.89,1.97-20,3.94-28.55,2.38-10.3,3.18-18.33,2.24-32.23-1.06-15.82-4.36-39.24-10.13-82.29-.7-5.21-1.44-10.71-2.21-16.52-.6-4.55-1.23-9.28-1.87-14.21-1.73-13.16-3.63-27.75-5.68-43.95-.6-4.74-1.12-9.31-1.55-13.71-.62-6.33-1.08-12.31-1.37-17.97-.7-13.17-.54-24.58.35-34.47,6.18-68.31,47.15-64.07,80.51-67.93.52-.05,1.05-.11,1.57-.18,8.25-1.03,16.6-.56,24.69,1.34,2.97.7,6.31,1.52,9.93,2.48,5.06,1.33,10.66,2.92,16.57,4.78,31.11,9.81,70.67,27.16,83.69,54.38.33.69.64,1.39.94,2.09,16.93,40.26-8.11,72.33-20.5,111.34-2.6,8.19-4.64,16.68-5.62,25.62-2.48,22.66,10.05,30.31,26.32,30.75,1.17.03,2.36.02,3.58-.02,20.12-.68,44.45-10.97,53.41-17.31,8.71-6.17,21.15-26.7,28.4-51.72,6.86-23.66,9.08-51.33-.87-74.66-.15-.36-.3-.72-.45-1.07-19.29-46.84,28.9-40.64,56.23-48.35,27.53-7.76,43.06-40.94,79.77-38.12,9.49.73,17,2.36,23,5.23,17.22,8.26,22.05,26.79,25.72,63.96.38,3.86.48,7.51.33,10.99-1.71,40.96-37.34,59.84-51.68,135.81-.31,1.64-.61,3.3-.9,4.99-1.35,7.92-2.03,15.4-2.15,22.44-.29,17.56,2.92,32.48,8.02,45.22,8.08,20.25,20.92,34.99,31.98,46.02,9.83,9.8,18.26,16.67,20.75,21.87,3.88,8.12,3.53,22.24.27,37.24Z" style="fill: #3417e1;"/>
  </g>
  <g>
    <path d="m196.09,376.22c-45.24,42.64-93.67,83.54-143.34,120.94,45.22-42.66,93.69-83.52,143.34-120.94h0Z" style="fill: #ffe406;"/>
    <path d="m292.31,327.82c-29.48,29.37-61.37,56.31-95.3,80.4,29.46-29.39,61.38-56.28,95.3-80.4h0Z" style="fill: #ffe406;"/>
    <path d="m335.65,408.3c-8.15,9.46-17.32,17.8-26.78,25.87-9.54,7.98-19.3,15.62-30,22.04,8.14-9.47,17.31-17.81,26.78-25.87,9.54-7.97,19.3-15.61,30-22.04h0Z" style="fill: #ffe406;"/>
    <path d="m197.03,525.26c-8.24,9.57-17.55,17.99-27.12,26.16-9.65,8.07-19.52,15.8-30.34,22.33,8.25-9.57,17.54-18,27.12-26.15,9.65-8.07,19.55-15.79,30.34-22.34h0Z" style="fill: #ffe406;"/>
    <path d="m504.61,390.74c-11.9,12.63-24.81,24.12-37.99,35.33-13.27,11.12-26.76,21.91-41.22,31.51,11.89-12.64,24.8-24.12,37.99-35.33,13.27-11.11,26.77-21.91,41.22-31.51h0Z" style="fill: #ffe406;"/>
    <path d="m653.14,298.2c-17.9,17.72-37.71,34.92-56.91,51.29-19.37,16.19-39.63,32.81-60.14,47.47,17.89-17.73,37.7-34.93,56.91-51.29,19.38-16.18,39.64-32.8,60.14-47.47h0Z" style="fill: #ffe406;"/>
    <path d="m532.59,399.91c-5.95,9.44-16.73,18.58-27.06,22.83,5.93-9.46,16.75-18.56,27.06-22.83h0Z" style="fill: #ffe406;"/>
    <path d="m530.61,518.64c-12.45,13.09-25.91,25.05-39.65,36.73-13.82,11.58-27.86,22.84-42.87,32.9,12.44-13.1,25.91-25.05,39.65-36.73,13.82-11.57,27.87-22.83,42.87-32.9h0Z" style="fill: #ffe406;"/>
    <path d="m644.17,422.82c-29.52,29.4-61.43,56.37-95.4,80.5,29.5-29.42,61.45-56.35,95.4-80.5h0Z" style="fill: #ffe406;"/>
    <path d="m237.15,754.4c-4.53,6.39-10.09,11.7-15.97,16.75-5.96,4.96-12.12,9.55-19.19,12.93,4.52-6.4,10.08-11.71,15.97-16.75,5.96-4.95,12.13-9.54,19.19-12.92h0Z" style="fill: #ffe406;"/>
    <path d="m434.16,620.95c-51.94,48.3-106.85,94.67-163.22,137.72,0,0-.01,0-.01,0,0,0,.01,0,0,0,51.92-48.32,106.87-94.65,163.22-137.72h0Z" style="fill: #ffe406;"/>
    <path d="m187.82,612.96c-18.5,18.22-38.93,35.95-58.73,52.82-19.97,16.7-40.86,33.84-61.96,49.01,18.49-18.23,38.93-35.96,58.73-52.82,19.97-16.69,40.86-33.83,61.96-49.01h0Z" style="fill: #ffe406;"/>
    <path d="m715.59,530.24c-52.16,48.49-107.31,95.06-163.9,138.3,52.15-48.51,107.33-95.04,163.9-138.3h0Z" style="fill: #ffe406;"/>
    <path d="m539.6,678.74c-3.83,7.66-11.88,14.48-20.09,16.95,3.81-7.68,11.89-14.46,20.09-16.95h0Z" style="fill: #ffe406;"/>
    <path d="m912.6,396.8c-10.81,11.7-22.63,22.27-34.72,32.57-12.18,10.2-24.58,20.07-37.95,28.74,10.8-11.71,22.62-22.28,34.72-32.57,12.18-10.19,24.59-20.06,37.95-28.74h0Z" style="fill: #ffe406;"/>
    <path d="m758.12,527.14c-5.61,7.31-12.24,13.52-19.19,19.46-7.02,5.85-14.25,11.35-22.41,15.64,5.6-7.32,12.24-13.52,19.19-19.46,7.03-5.85,14.26-11.34,22.41-15.64h0Z" style="fill: #ffe406;"/>
    <path d="m855.16,562.32c-9.68,10.75-20.37,20.38-31.35,29.73-11.06,9.26-22.34,18.18-34.58,25.9,9.67-10.76,20.37-20.38,31.35-29.73,11.06-9.25,22.35-18.18,34.58-25.9h0Z" style="fill: #ffe406;"/>
    <path d="m668.27,720.02c-.42,4.74-4.44,8.15-9.19,7.75.4-4.75,4.45-8.13,9.19-7.75h0Z" style="fill: #ffe406;"/>
    <path d="m976.95,584.55c-47.19,44.29-97.31,86.62-148.92,125.66,47.17-44.31,97.32-86.6,148.92-125.66h0Z" style="fill: #ffe406;"/>
    <path d="m1029.95,689.68c-9.08,10.25-19.18,19.37-29.56,28.22-10.46,8.76-21.15,17.18-32.79,24.39,9.07-10.26,19.17-19.38,29.56-28.22,10.47-8.75,21.16-17.17,32.79-24.39h0Z" style="fill: #ffe406;"/>
    <path d="m671.34,490.74c-35.21,34.2-72.78,65.94-112.44,94.87,35.19-34.22,72.8-65.92,112.44-94.87h0Z" style="fill: #ffe406;"/>
    <path d="m504.78,631.28c-3.58,5.57-8.2,10.11-13.15,14.36-5.03,4.17-10.25,7.96-16.37,10.54,3.57-5.59,8.19-10.11,13.14-14.36,5.03-4.16,10.26-7.97,16.38-10.54h0Z" style="fill: #ffe406;"/>
    <path d="m868.35,357.29c-3.62,5.62-8.27,10.16-13.26,14.46-5.06,4.2-10.33,8.02-16.48,10.63,3.61-5.63,8.26-10.17,13.26-14.46,5.07-4.19,10.33-8.02,16.48-10.63h0Z" style="fill: #ffe406;"/>
    <path d="m733.84,470.79c-8.95,10.14-18.92,19.15-29.17,27.89-10.33,8.65-20.89,16.96-32.4,24.06,8.94-10.15,18.91-19.16,29.17-27.89,10.34-8.64,20.9-16.95,32.4-24.06h0Z" style="fill: #ffe406;"/>
    <path d="m810.91,522.82c-7.28,8.73-15.58,16.33-24.18,23.67-8.67,7.25-17.57,14.15-27.4,19.85,7.27-8.74,15.57-16.34,24.18-23.67,8.68-7.24,17.57-14.15,27.4-19.85h0Z" style="fill: #ffe406;"/>
    <path d="m614.83,688.26c8.28-9.57,17.58-18.02,27.17-26.19,9.66-8.09,19.58-15.83,30.39-22.38-8.25,9.59-17.58,18.03-27.17,26.2-9.67,8.08-19.56,15.82-30.39,22.37h0Z" style="fill: #ffe406;"/>
    <path d="m979.86,505.25c-61.92,56.73-126.93,111.61-193.28,163.09,61.91-56.75,126.95-111.59,193.28-163.09h0Z" style="fill: #ffe406;"/>
    <path d="m1016.98,623.78c-28.93,28.9-60.26,55.37-93.63,79,28.91-28.92,60.27-55.36,93.63-79h0Z" style="fill: #ffe406;"/>
    <path d="m909.42,735.47c-8.91,10.11-18.84,19.08-29.06,27.79-10.29,8.61-20.81,16.89-32.28,23.96,8.9-10.11,18.84-19.09,29.06-27.79,10.3-8.61,20.82-16.88,32.28-23.96h0Z" style="fill: #ffe406;"/>
    <path d="m668.05,723.27c-10.48,11.44-21.99,21.74-33.77,31.76-11.86,9.93-23.95,19.54-36.99,27.94,10.48-11.44,21.98-21.74,33.77-31.76,11.87-9.93,23.95-19.53,36.99-27.94h0Z" style="fill: #ffe406;"/>
    <path d="m443.64,408.01c-4.99,6.79-11.01,12.47-17.34,17.9-6.41,5.34-13.03,10.32-20.56,14.08,4.98-6.79,11-12.48,17.34-17.9,6.41-5.33,13.03-10.31,20.56-14.08h0Z" style="fill: #ffe406;"/>
    <path d="m525.97,371.33c-12.26,12.93-25.54,24.73-39.09,36.25-13.63,11.42-27.49,22.53-42.31,32.43,12.26-12.94,25.53-24.74,39.09-36.25,13.64-11.42,27.5-22.52,42.31-32.43h0Z" style="fill: #ffe406;"/>
    <path d="m616.95,294.56c-12.11,12.81-25.24,24.48-38.64,35.88-13.48,11.3-27.19,22.28-41.87,32.05,12.11-12.82,25.24-24.49,38.64-35.88,13.49-11.29,27.2-22.27,41.87-32.05h0Z" style="fill: #ffe406;"/>
    <path d="m540.11,476.46c-48.54,45.43-100.02,88.9-152.99,129.08,48.52-45.45,100.04-88.88,152.99-129.08h0Z" style="fill: #ffe406;"/>
    <path d="m583.21,440.09c-5.09,6.87-11.21,12.65-17.65,18.16-6.51,5.42-13.23,10.49-20.87,14.34,5.08-6.88,11.21-12.65,17.65-18.16,6.52-5.42,13.24-10.48,20.87-14.34h0Z" style="fill: #ffe406;"/>
    <path d="m323.09,326.66c-12.58,13.18-26.16,25.25-40.01,37.03-13.94,11.68-28.1,23.04-43.23,33.2,12.56-13.2,26.14-25.25,40-37.03,13.95-11.67,28.11-23.05,43.24-33.2h0Z" style="fill: #ffe406;"/>
    <path d="m487.71,306.7c-13.01,13.57-27.04,25.99-41.33,38.15-14.38,12.05-28.99,23.79-44.56,34.32,13.01-13.58,27.03-26,41.33-38.15,14.38-12.05,28.99-23.78,44.56-34.32h0Z" style="fill: #ffe406;"/>
    <path d="m669.71,302.98c-19.75,19.28-41.5,38.12-62.55,56.04-21.22,17.76-43.42,36-65.78,52.23,19.74-19.29,41.49-38.12,62.55-56.04,21.23-17.75,43.43-35.99,65.78-52.23h0Z" style="fill: #ffe406;"/>
    <path d="m753.4,357.36c-5.85,7.52-12.73,13.93-19.92,20.08-7.26,6.06-14.74,11.76-23.14,16.25,5.84-7.53,12.73-13.94,19.92-20.08,7.27-6.05,14.74-11.75,23.14-16.25h0Z" style="fill: #ffe406;"/>
    <path d="m997.61,301.14c-46.79,43.95-96.5,85.93-147.71,124.63,46.77-43.97,96.51-85.91,147.71-124.63h0Z" style="fill: #ffe406;"/>
    <path d="m638.96,591.9c-13.23,13.75-27.48,26.36-41.99,38.7-14.6,12.24-29.42,24.16-45.21,34.88,13.22-13.76,27.47-26.37,41.99-38.7,14.6-12.23,29.43-24.15,45.21-34.88h0Z" style="fill: #ffe406;"/>
    <path d="m538.89,676.33c-29.7,29.58-61.85,56.72-96.01,81.02,29.7-29.6,61.88-56.69,96.01-81.02h0Z" style="fill: #ffe406;"/>
    <path d="m754.54,527.16c-17.51,17.39-36.9,34.25-55.71,50.28-18.97,15.86-38.83,32.13-58.94,46.46,17.5-17.4,36.9-34.25,55.71-50.28,18.98-15.85,38.84-32.12,58.94-46.46h0Z" style="fill: #ffe406;"/>
    <path d="m668.46,716.86c-11.75,12.5-24.51,23.86-37.54,34.94-13.12,10.99-26.46,21.65-40.76,31.12,11.74-12.51,24.5-23.86,37.54-34.94,13.12-10.98,26.47-21.65,40.76-31.12h0Z" style="fill: #ffe406;"/>
    <path d="m631.26,415.34c-12.81,13.4-26.64,25.66-40.74,37.64-14.18,11.89-28.59,23.45-43.96,33.82,12.81-13.41,26.63-25.66,40.74-37.64,14.19-11.88,28.6-23.44,43.96-33.82h0Z" style="fill: #ffe406;"/>
    <path d="m538.7,493.43c-32.23,31.69-66.85,60.93-103.53,87.35,32.21-31.71,66.87-60.91,103.53-87.35h0Z" style="fill: #ffe406;"/>
    <path d="m904.54,443.82c-45.96,43.25-94.83,84.52-145.21,122.52,45.94-43.27,94.85-84.5,145.21-122.52h0Z" style="fill: #ffe406;"/>
    <path d="m1023.66,376.09c-18.09,17.88-38.09,35.25-57.48,51.77-19.56,16.35-40.02,33.13-60.71,47.96,18.08-17.89,38.09-35.26,57.48-51.77,19.56-16.34,40.02-33.12,60.71-47.96h0Z" style="fill: #ffe406;"/>
    <path d="m968.93,539.33c-18.53,18.25-39.01,36.01-58.84,52.91-20,16.73-40.93,33.9-62.07,49.1,18.53-18.26,39-36.02,58.84-52.91,20.01-16.72,40.94-33.89,62.07-49.1h0Z" style="fill: #ffe406;"/>
    <path d="m937.9,645.43c-46.98,44.11-96.88,86.25-148.28,125.11,46.96-44.13,96.89-86.23,148.28-125.11h0Z" style="fill: #ffe406;"/>
    <path d="m237.61,393.09c-52.23,48.55-107.44,95.17-164.1,138.47,52.21-48.57,107.46-95.15,164.1-138.47h0Z" style="fill: #ffe406;"/>
    <path d="m180.17,558.62c-19.91,19.42-41.82,38.39-63.03,56.45-21.38,17.89-43.74,36.27-66.26,52.64,19.9-19.43,41.81-38.4,63.03-56.45,21.39-17.88,43.75-36.26,66.26-52.64h0Z" style="fill: #ffe406;"/>
    <path d="m213.81,655.23c-8.81,10.02-18.65,18.92-28.77,27.55-10.2,8.53-20.62,16.73-32,23.72,8.81-10.03,18.64-18.93,28.77-27.55,10.21-8.53,20.63-16.72,32-23.72h0Z" style="fill: #ffe406;"/>
    <path d="m546.13,407.61c-.24,4.58-4.1,7.87-8.67,7.32.23-4.59,4.11-7.85,8.67-7.32h0Z" style="fill: #ffe406;"/>
    <path d="m535.28,416.77c-28.61,28.64-59.63,54.85-92.69,78.21,28.59-28.66,59.65-54.83,92.69-78.21h0Z" style="fill: #ffe406;"/>
    <path d="m366.57,559.12c-2.74,6.73-9.41,12.39-16.52,13.94,2.72-6.75,9.42-12.37,16.52-13.94h0Z" style="fill: #ffe406;"/>
    <path d="m292.6,738.59c62.86-57.51,128.8-113.19,196.08-165.45-62.84,57.53-128.82,113.17-196.08,165.45h0Z" style="fill: #ffe406;"/>
    <path d="m149.81,678.72c-9.96,11-20.95,20.86-32.21,30.45-11.34,9.5-22.91,18.67-35.44,26.63,9.96-11.01,20.94-20.87,32.21-30.45,11.35-9.49,22.92-18.66,35.44-26.63h0Z" style="fill: #ffe406;"/>
    <path d="m215.42,656.15c-9.47,10.58-19.96,20.02-30.73,29.2-10.85,9.08-21.92,17.83-33.95,25.37,9.46-10.59,19.95-20.03,30.73-29.2,10.86-9.07,21.93-17.82,33.95-25.37h0Z" style="fill: #ffe406;"/>
    <path d="m289.38,710.81c-13.14,13.68-27.3,26.21-41.73,38.48-14.51,12.16-29.25,24.01-44.95,34.65,13.14-13.69,27.3-26.22,41.73-38.48,14.52-12.16,29.26-24,44.95-34.65h0Z" style="fill: #ffe406;"/>
    <path d="m458.33,693.24c-10.89,11.77-22.79,22.41-34.97,32.78-12.26,10.27-24.75,20.22-38.2,28.96,10.88-11.78,22.79-22.42,34.97-32.78,12.27-10.26,24.76-20.21,38.2-28.96h0Z" style="fill: #ffe406;"/>
    <path d="m655.34,559.8c-31.92,31.44-66.26,60.42-102.62,86.59,31.89-31.47,66.27-60.41,102.62-86.59h0Z" style="fill: #ffe406;"/>
    <path d="m533.94,662.23c-11.14,11.99-23.3,22.84-35.73,33.42-12.51,10.48-25.25,20.64-38.95,29.59,11.13-12,23.29-22.84,35.73-33.42,12.52-10.47,25.26-20.63,38.95-29.59h0Z" style="fill: #ffe406;"/>
    <path d="m597.9,725.32c-4.65,6.5-10.33,11.91-16.33,17.05-6.08,5.06-12.36,9.75-19.56,13.23,4.64-6.51,10.33-11.91,16.33-17.05,6.08-5.05,12.37-9.74,19.56-13.23h0Z" style="fill: #ffe406;"/>
  </g>
</svg>