<?xml version="1.0" encoding="UTF-8"?>
<svg id="christ_roi_lisbonne" data-name="christ roi lisbonne" xmlns="http://www.w3.org/2000/svg" viewBox="0 0 283.46 425.2">
  <rect x="14.14" y="51.08" width="107.72" height="56.85" style="fill: #e2a152;"/>
  <path d="m55,97.91c19.57-4.43,28.09,4.77,38.64,0s25.72,1.41,25.72,1.41l-26.06,12.2-38.3-13.62Z" style="fill: #5b7767;"/>
  <path d="m269.31,62.55l-155.22,10.17s-18.41,12.77-17.39,16.77,20.81-1.45,22.66,1.61-4.15,6.08-11.19,10.87-31.21,6.67-39.72-1.25-54.31-20.12-54.31-20.12v38.24l255.17,6.57v-62.86Z" style="fill: #face81;"/>
  <rect x="14.14" y="14.19" width="255.16" height="34.62" style="fill: #82cff4;"/>
  <path d="m14.14,46.52s112.69-.35,132.69-1.37,109.3-4.82,122.48-2.1v23.83s-16.82-.62-23.23,1.42-8.47,5.79-5.56,7.15,12.33,3.59,15.45,4.35,4.15,2.16,8.4,2.05c4.94-.12,4.94-.13,4.94-.13v12.06s.35-7.72-19.79-6.5c-24.37,1.47-26.91-.26-29.86-1.79s-58.74.26-59.57-7.4c1.08-1.79-11.47-5.11-24.4-4.6s-23.4,2.3-29.53-.26-16.09-2.24-16.85-9.42c.77-2.72,4.34-4.37,4.34-4.37,0,0-21.95.26-23.74-.51s15.06-3.57,15.06-3.57c0,0-4.9-3.32-15.09-2.55s-36.23-.51-32.15,1.02,9.91,5.36,3.55,5.87-24.47-1.93-27.14-1.67v-11.51Z" style="fill: #5b7767;"/>
  <path d="m124.28,63.81s8.17-3.86,14.64-3.52,8.68.79,8.68.79c0,0-.5.8-6.04,2.56s-7.75,4.14-10.65,2.78-5.28,0-6.64-.68,0-1.93,0-1.93Z" style="fill: #e2a152;"/>
  <path d="m104.36,50.43s14.35-3.57,23.26,0c3.97-.79,2.78-1.82,5.16-1.59s8.05.23,9.56,1.59,3.45,2.55-2.71,2.89-19.1-1.11-22-2.26-13.28-.64-13.28-.64Z" style="fill: #e2a152;"/>
  <path d="m183.51,72.72c32.51,1.87,61.37,7.07,61.37,7.07,0,0-12.74,1.54-25.23.38s-36.15-7.45-36.15-7.45Z" style="fill: #e2a152;"/>
  <rect x="231.83" y="94.55" width="6.49" height="20.98" style="fill: #ddb480;"/>
  <polygon points="14.14 118.85 269.31 125.41 269.31 382.7 14.14 382.7 14.14 118.85" style="fill: #5c99be;"/>
  <path d="m232.28,143.89l-.83-1.53h-15.94l21.04-17.79-7.04-.18L14.14,295.38v17.2l70.46-59.55,32.02-1.41.38-3.32s-20.71.77-27.93.95l124.63-105.35h18.58Z" style="fill: #3c6f8c;"/>
  <polygon points="192.58 139.75 190.9 139.75 191.04 61.09 192.45 61.09 192.58 139.75" style="fill: #c1282e; stroke: #c1272d; stroke-miterlimit: 10; stroke-width: .46px;"/>
  <path d="m26.74,246.17h33.11s1.53.77,1.45,2.13c1.96,0,4.85-.43,4.6,4.26l-5.28,4.51-38.04-.68v-5.28l3.49-2.81s-.6-2.13.68-2.13Z" style="fill: #f6d8ce;"/>
  <polygon points="32.87 246.85 29.24 246.85 29.55 77.23 32.57 77.23 32.87 246.85" style="fill: #c1282e; stroke: #c1272d; stroke-miterlimit: 10;"/>
  <path d="m14.14,198.45c131.9-71.04,222.67-103.89,222.67-103.89,0,0-3.51-.38-12.25,1.66C172,111.19,14.14,187.66,14.14,187.66v10.79Z" style="fill: #88716b;"/>
  <path d="m14.61,129.54c36.77-47.66,36.05-50.01,36.05-50.01,0,0,66.19,73.9,99.01,50.01s39.09-32.87,52.06-67.41" style="fill: none; stroke: #c1272d; stroke-linecap: round; stroke-miterlimit: 10;"/>
  <polyline points="32.33 191.68 55 215.96 56.11 217.23 32.33 240.2" style="fill: none; stroke: #c1272d; stroke-linecap: round; stroke-miterlimit: 10;"/>
  <polyline points="192.33 114.16 202.84 125.42 203.36 126.01 192.33 136.66" style="fill: none; stroke: #c1272d; stroke-linecap: round; stroke-miterlimit: 10; stroke-width: .46px;"/>
  <path d="m14.14,213.01s162.09-93.22,222.67-114.33q0-4.13,0-4.13c.24-.43-121.9,46.08-222.67,103.89q0,14.56,0,14.56Z" style="fill: #5b1319;"/>
  <polygon points="58.57 248.3 54.95 248.3 50.05 78.24 53.07 78.24 58.57 248.3" style="fill: #c1282e; stroke: #c1272d; stroke-miterlimit: 10;"/>
  <path d="m31.06,78.24s69.62,75.72,106.44,52.34,53.9-69.02,53.9-69.02" style="fill: none; stroke: #c1272d; stroke-linecap: round; stroke-miterlimit: 10;"/>
  <g id="statut">
    <polygon points="56.36 370.64 105.61 333.17 216.96 345.8 185.27 382.7 139.11 382.7 56.36 370.64" style="fill: #fbe4e4;"/>
    <path d="m160.42,345.15l-.71.12c-1.01.17-1.88.79-2.36,1.7l-.03.06c-.14.26-.41.42-.7.42l-8.32.94c-.48.05-.97-.04-1.4-.28l-1.16-.65-.98,1.15c-.35.41-.87.65-1.41.65h-8.03c-.19.03-.39-.02-.54-.14l-.75-.61c-.36.38-.9.55-1.41.44l-7.25-1.49c-.19,0-.36-.09-.47-.25l-.52-.84-.75.87c-.1.13-.25.21-.42.21h-.53c-2.52,0-4.99-.74-7.09-2.13l-1.24-.44-.23-117.52c-.02-2.31.21-4.62.69-6.88l2.85-13.45h39.83l2.82,16.7c.16.95.24,1.92.24,2.88l.63,117.66c0,.44-.31.82-.75.89Z" style="fill: #f6d8ce;"/>
    <path d="m59.6,163.62c-.45.28-.82.67-1.12,1.13-1.5,2.28-1.27,6.19-1.27,6.19,0,0,2.89,28.77,4.6,29.96s10.72,2.21,11.91,1.53,1.36-3.23,1.36-3.23c0,0,30.47.61,32.51,3.45-1.19,1.99-.85,2.68,0,3.53s9.31,4.32,9.31,4.32c0,0,39.36-1.05,40.81-2s4.69-3,4.69-3c0,0,15.83,1.7,19.74,1.53s10.21,0,10.21,0c0,0,1.36,1.19,5.11,1.02,0,2.44,2.72,3.57,2.72,3.57,0,0,9.19,2.3,11.06.98s11.06-31.11,10.81-33.66-.26-6.06-1.47-6-7.21-.38-8.04-.06-1.21,1.09-1.21,1.09c0,0-12.64-2.62-14.94-3.51s-8.23-.51-12.19-1.98-19.09-8.55-24.7-8.94-43.4-2.04-43.4-2.04c0,0-8.94.38-11.74,2.43s-23.11,5.87-27.83,5.62-7.79-.13-8.55-.26-.38-.32-.86-.83-7.52-.83-7.52-.83Z" style="fill: #f6d8ce;"/>
    <path d="m114.96,222.94s1.4.89,1.49,2.51,1.36.34,1.36-.81.94-5.15,3.02-5.45,3.53-.72,4.13,0,.72.77,1.28.47,1.02-3.83,1.62-3.87,1.7-.09,1.7,1.19.47,2.38,1.02,2.47,2.38,0,2.51-.55.72-2.85,1.32-2.85,2.24,1.53,3.22,2.6,3.35.41,4.1,2.35,1.78,8.84,7.05,9.52c3.4,3.57,3.57,6.81,3.4,10.72s-3.74,9.36-2.21,11.91,4.09,5.96,4.26,10.72,5.79,10.21,5.79,10.21c0,0,.66-51.54-2.31-65.6-7.23,2.11-5.69,3.13-9.61,2.45s-8.51-4.26-13.28-4.6-11.11,3.95-13.29,4.01-2.02-2.11-3.05.09-4,6.28-3.53,12.49Z" style="fill: #67574b; opacity: .43;"/>
    <polygon points="120.3 347.22 123.4 347.4 124.36 346.36 121.98 227.96 119.36 245 120.3 347.22" style="fill: #67574b; opacity: .43;"/>
    <path d="m134.01,348.49l-.41.31c-.13.06-.65.15-.79.12l-2.91-.54v-119.4l2.06,37.53,2.06,81.98Z" style="fill: #67574b; opacity: .43;"/>
    <path d="m147.57,348.4l-1.46-.75c-.23-.12-.52-.08-.71.1l-1.4,1.36-2.27-121,3.99,42.48,1.85,77.81Z" style="fill: #67574b; opacity: .43;"/>
    <path d="m157.21,347.16s1.54-2.16,2.49-1.89c0-1.62-2.49-68.03-2.49-68.03v69.93Z" style="fill: #67574b; opacity: .43;"/>
    <path d="m132.79,172.98c-5.11,18.89-15.84,27.4-17.88,28.43s-2.49-1.02-.82-4.09,13.42-20.94,14.61-22.64,4.09-1.7,4.09-1.7Z" style="fill: #67574b; opacity: .43;"/>
    <path d="m150.32,206.32c1.7-10.02,8.14-15.98,8.14-15.98,0,0,4.53-5.28,2.71-1.02s-1.78,10.21-1.46,13.28-3.43,6.13-6.49,5.28-2.89-1.55-2.89-1.55Z" style="fill: #67574b; opacity: .43;"/>
    <path d="m177.04,175.7s5.96-.34,7.32,0-3.4,6.98-3.66,8.34-1.79,8-6.04,10.55-5.11,0-5.11,0l7.49-18.89Z" style="fill: #67574b; opacity: .43;"/>
    <path d="m189.81,177.74c1.87-1.36,5.79-2.38,6.13,1.02s-5.11,16.06-9.19,16.96-4.09,1.42-4.26-1.3,7.32-16.68,7.32-16.68Z" style="fill: #67574b; opacity: .43;"/>
    <path d="m182.49,205.66c5.96-3.23,18.39-17.7,20.09-22.3s2.89-7.66,4.09-6.89,2.38,2.47,0,6.38-7.8,13.66-10.71,15.6-3.08,5.98-3.93,7.87-9.53-.66-9.53-.66Z" style="fill: #67574b; opacity: .43;"/>
    <path d="m220.6,172.94c-4.23,12.81-9.11,33.32-8.37,38.04,3.03-8.02,9.07-24.38,9.67-30.6s-1.29-7.45-1.29-7.45Z" style="fill: #67574b; opacity: .43;"/>
    <path d="m221.79,175.55c.08,0,.18.01.28.02,3.91.39,20.22,4.55,22.46,6.17s-.77,2.94-.77,2.94c0,0,2.49,1.34,2.3,2.23s-1.6,1.09-2.17,1.15c.19.89-.64,1.53-4.53,1.15-1.09,1.31-3.47,2.47-19.71.77-16.23-1.7,2.13-14.43,2.13-14.43Z" style="fill: #f6d8ce;"/>
    <path d="m229.52,180.4c5.06.45,15.04,3.83,15.04,3.83l-.79.45s2.43,1.21,2.3,2.23-2.17,1.15-2.17,1.15c0,0,0,2.11-4.53,1.15-1.57,1.03-7.25,2.52-13.42,1.34,2.76-.76,5.38-.57,2.76-1.27s-5.49-2.74-3.45-2.23,10.21,1.66,10.91.96-7.72-2.75-7.72-2.75c0,0-.61-.95,1.07-.63s8.66,2,11.31.63c-.32-2.06-11.31-4.84-11.31-4.84Z" style="fill: #67574b; opacity: .43;"/>
    <path d="m66.06,164.98c.51,8.85,5,32.65,6.81,34.38s1.25-1.32,2.07.79-1.05,2.13-2.75,1.52-8.17-31.41-7.49-35.84,1.36-.85,1.36-.85Z" style="fill: #67574b; opacity: .43;"/>
    <path d="m69.9,176.55c14.97,17.79,16.42,20,18.29,20.51s8.34,3.23,15.06-.94,7.66-8.33,8.34-8.8,1.19-.73.94,1.06-2.9,9.88-4.68,11.66c-1.38,1.38-12.77.4-17.8-.11-1.51-.15-2.88-.92-3.8-2.11-4.35-5.64-17.07-22.12-16.35-21.27Z" style="fill: #67574b; opacity: .43;"/>
    <path d="m59.13,179.32c-10.3.85-11.57.94-12.94.6s-1.02-1.87,0-1.96c-3.15,0-3.19-.2-3.93-.46s-1.12-1.66,0-1.82c-.46-.09-.85-.46-.99-.86-.16-.44-.04-.92.58-1.15-1.27-.52-1.45-1.17-1.39-1.6.04-.27.21-.49.46-.62,1.32-.68,7.03-3.55,10.4-4.41-1.53.26-1.7-1.21-.51-1.51s6.89-.94,7.38-.81.94,14.6.94,14.6Z" style="fill: #f6d8ce;"/>
    <path d="m47.98,174c-6.09.68-6.71.83-6.71.83l.99.86,5.54-.84.17-.84Z" style="fill: #67574b; opacity: .43;"/>
    <path d="m48.36,170.13c-5.82,1.46-7.77,3.07-7.91,2.66l1.42.68,5.73-2.44.77-.89Z" style="fill: #67574b; opacity: .43;"/>
    <path d="m42.68,177.66c1.77-.81,5.68-.98,5.68-.98,0,0,.68.98-.17.98s-3.36.28-3.36.28l-2.15-.28Z" style="fill: #67574b; opacity: .43;"/>
    <path d="m145.6,120.47c7.15,3.19,8.04,4.47,9.06,6.77s1.32,6.89,1.3,8.43,1.13,2.81.62,3.96-4.6,4.6-3.06,9.57,4.46,2.85,5.62,6.64-1.4,6-1.4,6c0,0-39.83,3.7-41.23-1.79s-.13-7.53,1.4-8.55,9.05-4.58,9.57-8.17c1.28-8.79,2.46-18.8,7.79-20.3,5.44-1.53,10.34-2.55,10.34-2.55Z" style="fill: #f6d8ce;"/>
    <path d="m121.98,158.77c1.79-3.83,9.62-17.19,10.81-24.09s0,6.47-1.7,10.38-4.26,6.55-4.34,10.98-4.77,2.72-4.77,2.72Z" style="fill: #67574b; opacity: .43;"/>
    <path d="m129.81,152.55c-1.45,2.55-1.62,7.06-1.36,7.23s1.45,2.38,1.36,0,0-7.23,0-7.23Z" style="fill: #67574b; opacity: .43;"/>
    <path d="m131.6,159.09c1.36-3.81,2.47-3.98,2.72-4.83s1.36-2.89,1.36-1.7-.17,3.48-.68,4.17-.77,2.39-1.36,2.81-2.04-.44-2.04-.44Z" style="fill: #67574b; opacity: .43;"/>
    <path d="m141.73,149.57c-.26,5.02.34,9.32,0,11.31s-8.26,1.29-7.5-.84,2.96-5.11,3.78-5.7-.14,1.61,0,2.38,3.72-7.14,3.72-7.14Z" style="fill: #67574b; opacity: .43;"/>
    <path d="m146.57,149.57c.34,4.68.51,10.04-.6,10.47s-4.09,2.43-3.57-.95,2.72-5.09,2.98-6.02,1.19-3.49,1.19-3.49Z" style="fill: #67574b; opacity: .43;"/>
    <path d="m150.66,150.09c1.36,4,1.26,6.67.68,7.83s-2.47,2.89-3.15,2.38-1.02-2.8.34-4.38,1.95-1.75,1.79-3.37.34-2.47.34-2.47Z" style="fill: #67574b; opacity: .43;"/>
    <path d="m159.13,155.83c-1.83,1.23-2.72.59-3.17-.53s-1.13-2.06-1.72-.79-2.36,3.29-2.12,4.63,4.37,2.61,5.61,1.75c2.64-.5,1.4-5.06,1.4-5.06Z" style="fill: #67574b; opacity: .43;"/>
    <path d="m222.07,175.36c3.4-.64,9.14-.77,10.21-.64s2.72,1.34,3.91,1.63.35,1.44,0,1.9-13.7-1.9-13.7-1.9l-.42-.99Z" style="fill: #f6d8ce;"/>
    <polygon points="185.27 382.7 216.96 345.8 219.66 382.7 185.27 382.7" style="fill: #927a60;"/>
    <polygon points="57.02 370.13 139.63 382.7 56.36 382.7 56.36 370.64 57.02 370.13" style="fill: #ad7c5b;"/>
    <polygon points="114.09 330.77 110.32 333.49 110.32 339.62 114.09 336.38 114.09 330.77" style="fill: #e9da9c;"/>
    <polyline points="161.13 337.91 180.11 337.91 176.36 348.93 214.4 348.93 209.52 354.46 202.87 362.93 171.98 366.34 161.17 351.36 148.29 348.38" style="fill: #827a8e;"/>
    <polygon points="100.28 341.49 91.16 348.93 91.16 355.62 158.46 364.3 167.85 355.11 167.85 349.25 158.46 358.51 97.55 350.34 101.3 347.4 100.28 341.49" style="fill: #e9da9c;"/>
    <polygon points="161.17 332.64 182.83 334.17 182.83 340.47 175.17 348.93 174.49 342.51 178.91 338.6 161.13 337.91 161.17 332.64" style="fill: #776e45;"/>
  </g>
  <path d="m14.61,98.68c13.96-16.68,14.95-21.45,14.95-21.45" style="fill: none; stroke: #c1272d; stroke-linecap: round; stroke-miterlimit: 10;"/>
  <polyline points="31.06 83.11 50.88 107.28 51.94 109.32 31.06 133.83 30.32 134.68 55 163.05" style="fill: none; stroke: #c1272d; stroke-linecap: round; stroke-miterlimit: 10;"/>
  <polyline points="51.26 83.11 30.32 108.76 53.3 135.36 31.06 160.89" style="fill: none; stroke: #c1272d; stroke-linecap: round; stroke-miterlimit: 10;"/>
  <line x1="31.06" y1="82.74" x2="51.09" y2="82.74" style="fill: none; stroke: #c1272d; stroke-linecap: round; stroke-miterlimit: 10; stroke-width: 2px;"/>
  <polyline points="55 191.68 31.06 215.94 56.11 241.23" style="fill: none; stroke: #c1272d; stroke-linecap: round; stroke-miterlimit: 10;"/>
  <path d="m189.74,139.43h15.35s.71.36.67.99c.91,0,2.25-.2,2.13,1.97l-2.45,2.09-17.64-.32v-2.45l1.62-1.3s-.28-.99.32-.99Z" style="fill: #f6d8ce;"/>
  <polygon points="204.5 140.42 202.82 140.42 200.55 61.56 201.95 61.56 204.5 140.42" style="fill: #c1282e; stroke: #c1272d; stroke-miterlimit: 10; stroke-width: .46px;"/>
  <polyline points="191.74 63.81 200.94 75.03 201.42 75.97 191.74 87.34 191.4 87.73 202.84 100.89" style="fill: none; stroke: #c1272d; stroke-linecap: round; stroke-miterlimit: 10; stroke-width: .46px;"/>
  <polyline points="201.11 63.81 191.4 75.71 202.06 88.05 191.74 99.88" style="fill: none; stroke: #c1272d; stroke-linecap: round; stroke-miterlimit: 10; stroke-width: .46px;"/>
  <line x1="191.74" y1="63.65" x2="201.03" y2="63.65" style="fill: none; stroke: #c1272d; stroke-linecap: round; stroke-miterlimit: 10; stroke-width: .93px;"/>
  <polyline points="202.84 114.16 191.74 125.41 203.36 137.14" style="fill: none; stroke: #c1272d; stroke-linecap: round; stroke-miterlimit: 10; stroke-width: .46px;"/>
  <path d="m201.73,62.6s15.57,35.15,27.23,34.38" style="fill: none; stroke: #c1272d; stroke-linecap: round; stroke-miterlimit: 10;"/>
  <path d="m191.74,62.14s18.75,35.19,25.98,36.08" style="fill: none; stroke: #c1272d; stroke-linecap: round; stroke-miterlimit: 10;"/>
  <polygon points="248.04 107.19 246.09 107.19 246.09 93.19 248.04 92.78 248.04 107.19" style="fill: #ada18e;"/>
  <polygon points="243.68 107.94 241.72 107.94 241.72 93.94 243.68 93.52 243.68 107.94" style="fill: #ada18e;"/>
  <polygon points="251.96 106.3 250 106.3 250 92.3 251.96 91.89 251.96 106.3" style="fill: #ada18e;"/>
  <polygon points="256.13 105.52 254.17 105.52 254.17 91.52 256.13 91.1 256.13 105.52" style="fill: #ada18e;"/>
  <polygon points="260 105.12 258.04 105.12 258.04 91.12 260 90.71 260 105.12" style="fill: #ada18e;"/>
  <polygon points="263.51 104.74 261.55 104.74 261.55 90.74 263.51 90.33 263.51 104.74" style="fill: #ada18e;"/>
  <polygon points="267.02 104.53 265.06 104.53 265.06 90.53 267.02 90.11 267.02 104.53" style="fill: #ada18e;"/>
  <polygon points="269.31 104.2 268.79 104.2 268.79 90.2 269.31 89.78 269.31 104.2" style="fill: #ada18e;"/>
  <path d="m269.31,89.45s-26.01.62-37.48,5.1h7.49s22.25-4.76,29.99-4.16v-.94Z" style="fill: #d0a675;"/>
  <path d="m239.32,97.91c0,.09,2.4,0,2.4,0v1.53h-2.4v-1.53Z" style="fill: #ada18e;"/>
  <path d="m239.32,103.51c0,.09,2.4,0,2.4,0v1.53h-2.4v-1.53Z" style="fill: #ada18e;"/>
  <path d="m243.68,96c0,.09,2.4,0,2.4,0v1.53h-2.4v-1.53Z" style="fill: #ada18e;"/>
  <path d="m243.68,101.98c0,.09,2.4,0,2.4,0v1.53h-2.4v-1.53Z" style="fill: #ada18e;"/>
  <path d="m248.04,94.93c0,.09,2.96,0,2.96,0v1.53h-2.96v-1.53Z" style="fill: #ada18e;"/>
  <path d="m248.04,100.9c0,.09,2.96,0,2.96,0v1.53h-2.96v-1.53Z" style="fill: #ada18e;"/>
  <path d="m251.38,94.16c0,.09,2.96,0,2.96,0v1.53h-2.96v-1.53Z" style="fill: #ada18e;"/>
  <path d="m251.38,100.14c0,.09,2.96,0,2.96,0v1.53h-2.96v-1.53Z" style="fill: #ada18e;"/>
  <path d="m259.32,93.57c0,.09,2.96,0,2.96,0v1.53h-2.96v-1.53Z" style="fill: #ada18e;"/>
  <path d="m259.32,99.54c0,.09,2.96,0,2.96,0v1.53h-2.96v-1.53Z" style="fill: #ada18e;"/>
  <path d="m255.97,93.78c0,.09,2.96,0,2.96,0v1.53h-2.96v-1.53Z" style="fill: #ada18e;"/>
  <path d="m255.97,99.76c0,.09,2.96,0,2.96,0v1.53h-2.96v-1.53Z" style="fill: #ada18e;"/>
  <path d="m262.89,93.24c0,.09,2.96,0,2.96,0v1.53h-2.96v-1.53Z" style="fill: #ada18e;"/>
  <path d="m262.89,99.21c0,.09,2.96,0,2.96,0v1.53h-2.96v-1.53Z" style="fill: #ada18e;"/>
  <path d="m265.85,93.01c0,.09,2.96,0,2.96,0v1.53h-2.96v-1.53Z" style="fill: #ada18e;"/>
  <path d="m265.85,98.99c0,.09,2.96,0,2.96,0v1.53h-2.96v-1.53Z" style="fill: #ada18e;"/>
  <path d="m234.08,99.66s1.22,9.92,2.73,11.11,1.51,4.77,1.51,4.77h1.01v-7.23s-.01-13.75-.01-13.75h-4.24l-1,5.11Z" style="fill: #ada18e;"/>
  <path d="m65.91,82.74c11.73-1.85,12.75,8.87,19.9,6.74s10.55-5.91,15.66-3.34-10.71,9.87-17.78,8.78-13.17,1.28-17.78-3.82,0-8.36,0-8.36Z" style="fill: #5b7767;"/>
  <polygon points="236.55 124.57 244.88 115.53 238.45 115.53 229.52 124.39 236.55 124.57" style="fill: #ada18e;"/>
  <text transform="translate(113.6 402.46)" style="fill: #1d1d1b; font-family: ArcaneNine, &apos;Arcane Nine&apos;; font-size: 20px;"><tspan x="0" y="0">L</tspan><tspan x="8.79" y="0" style="letter-spacing: -.03em;">I</tspan><tspan x="15.97" y="0">S</tspan><tspan x="24.76" y="0" style="letter-spacing: -.04em;">B</tspan><tspan x="33.79" y="0" style="letter-spacing: -.06em;">O</tspan><tspan x="48.14" y="0">A</tspan></text>
  <line x1="114.21" y1="407.77" x2="170.89" y2="407.77" style="fill: none; stroke: #000; stroke-miterlimit: 10;"/>
  <text transform="translate(63.22 419.54)" style="fill: #1d1d1b; font-family: ArcaneNine, &apos;Arcane Nine&apos;; font-size: 10px;"><tspan x="0" y="0">S</tspan><tspan x="4.39" y="0" style="letter-spacing: -.11em;">t</tspan><tspan x="7.66" y="0" style="letter-spacing: -.12em;">a</tspan><tspan x="11.33" y="0" style="letter-spacing: -.02em;">t</tspan><tspan x="15.49" y="0" style="letter-spacing: -.01em;">u</tspan><tspan x="20.26" y="0">e du c</tspan><tspan x="43.7" y="0" style="letter-spacing: -.02em;">h</tspan><tspan x="48.41" y="0" style="letter-spacing: -.06em;">r</tspan><tspan x="52.69" y="0" style="letter-spacing: -.03em;">i</tspan><tspan x="56.28" y="0">st </tspan><tspan x="67.02" y="0" style="letter-spacing: -.03em;">R</tspan><tspan x="71.65" y="0" style="letter-spacing: -.08em;">o</tspan><tspan x="78.63" y="0">i - </tspan><tspan x="90.35" y="0" style="letter-spacing: -.03em;">P</tspan><tspan x="94.91" y="0">o</tspan><tspan x="102.72" y="0" style="letter-spacing: -.02em;">n</tspan><tspan x="107.39" y="0">t du 25 </tspan><tspan x="137.18" y="0" style="letter-spacing: -.07em;">a</tspan><tspan x="141.37" y="0" style="letter-spacing: -.02em;">v</tspan><tspan x="146.08" y="0" style="letter-spacing: -.06em;">r</tspan><tspan x="150.36" y="0">il</tspan></text>
  <path d="m239.33,115.53s-6.86-10.79,29.98-11.33v8.63s-16.04-.19-24.43,2.7-5.55,0-5.55,0Z" style="fill: #ada18e;"/>
</svg>